<mxfile host="app.diagrams.net" modified="2021-02-04T14:49:27.075Z" agent="5.0 (Windows NT 10.0; Win64; x64) AppleWebKit/537.36 (KHTML, like Gecko) Chrome/88.0.4324.146 Safari/537.36" etag="tWOSS5PsnAQ2U7e1dNeT" version="14.2.9" type="github">
  <diagram id="22_H_vduyoQpdaLCtkN4" name="Page-1">
    <mxGraphModel dx="1038" dy="548" grid="1" gridSize="10" guides="1" tooltips="1" connect="1" arrows="1" fold="1" page="1" pageScale="1" pageWidth="850" pageHeight="1100" math="0" shadow="0">
      <root>
        <mxCell id="0" />
        <mxCell id="1" parent="0" />
        <mxCell id="RwnJt-IZ9TQ-p6UvVzqU-1" value="Actor" style="shape=umlActor;verticalLabelPosition=bottom;verticalAlign=top;html=1;outlineConnect=0;" vertex="1" parent="1">
          <mxGeometry x="317.5" y="210" width="165" height="260" as="geometry" />
        </mxCell>
        <mxCell id="RwnJt-IZ9TQ-p6UvVzqU-2" value="" style="shape=process;whiteSpace=wrap;html=1;backgroundOutline=1;" vertex="1" parent="1">
          <mxGeometry x="280" y="470" width="240" height="60" as="geometry" />
        </mxCell>
        <mxCell id="RwnJt-IZ9TQ-p6UvVzqU-3" value="This is some test text. I deleted my other repository with the original one of these in it, oh well that&#39;s science!" style="text;html=1;strokeColor=none;fillColor=none;align=center;verticalAlign=middle;whiteSpace=wrap;rounded=0;" vertex="1" parent="1">
          <mxGeometry x="280" y="40" width="240" height="150" as="geometry" />
        </mxCell>
      </root>
    </mxGraphModel>
  </diagram>
</mxfile>
